<svg version="1.1" viewBox="0.0 0.0 600.0 371.0" fill="none" stroke="none" stroke-linecap="square" stroke-miterlimit="10" width="600" height="371" xmlns:xlink="http://www.w3.org/1999/xlink" xmlns="http://www.w3.org/2000/svg"><path fill="#ffffff" d="M0 0L600.0 0L600.0 371.0L0 371.0L0 0Z" fill-rule="nonzero"/><path fill="#3b82f6" d="M300.0 54.916668C367.80002 54.916668 427.02335 100.75895 444.0176 166.39459C461.01184 232.03023 431.47748 300.8535 372.19675 333.75696L300.0 203.68333Z" fill-rule="nonzero"/><path fill="#eab308" d="M372.19675 333.75696C317.78226 363.95947 250.31839 357.09906 203.09749 316.56125C155.87659 276.02344 138.8794 210.37639 160.49374 152.01588C182.1081 93.655396 237.76555 54.916668 300.0 54.916668L300.0 203.68333Z" fill-rule="nonzero"/><path fill="#1a1a1a" d="M19.471874 234.60764L19.471874 226.01389L20.628124 226.01389L25.14375 232.76389L25.14375 226.01389L26.2375 226.01389L26.2375 234.60764L25.065624 234.60764L20.55 227.85764L20.55 234.60764L19.471874 234.60764ZM27.95625 231.49826Q27.95625 229.76389 28.909374 228.93576Q29.70625 228.24826 30.8625 228.24826Q32.14375 228.24826 32.95625 229.09201Q33.784374 229.92014 33.784374 231.40451Q33.784374 232.60764 33.425 233.29514Q33.065624 233.98264 32.3625 234.37326Q31.675 234.74826 30.8625 234.74826Q29.565624 234.74826 28.753124 233.92014Q27.95625 233.07639 27.95625 231.49826ZM29.034374 231.49826Q29.034374 232.68576 29.55 233.27951Q30.08125 233.87326 30.8625 233.87326Q31.659374 233.87326 32.175 233.27951Q32.690624 232.68576 32.690624 231.46701Q32.690624 230.31076 32.159374 229.71701Q31.64375 229.12326 30.8625 229.12326Q30.08125 229.12326 29.55 229.71701Q29.034374 230.29514 29.034374 231.49826Z" fill-rule="nonzero"/><path fill="#9e9e9e" d="M19.05 249.35764L20.159374 249.26389Q20.284374 250.07639 20.721874 250.48264Q21.175 250.88889 21.815624 250.88889Q22.565624 250.88889 23.096874 250.31076Q23.628124 249.73264 23.628124 248.79514Q23.628124 247.88889 23.1125 247.37326Q22.6125 246.84201 21.784374 246.84201Q21.284374 246.84201 20.8625 247.07639Q20.45625 247.31076 20.221874 247.67014L19.2375 247.54514L20.065624 243.13889L24.346874 243.13889L24.346874 244.13889L20.909374 244.13889L20.45625 246.45139Q21.221874 245.90451 22.065624 245.90451Q23.190624 245.90451 23.95625 246.68576Q24.7375 247.46701 24.7375 248.70139Q24.7375 249.85764 24.065624 250.71701Q23.2375 251.74826 21.815624 251.74826Q20.64375 251.74826 19.89375 251.09201Q19.159374 250.43576 19.05 249.35764ZM27.675 246.95139Q27.01875 246.70139 26.690624 246.26389Q26.378124 245.81076 26.378124 245.20139Q26.378124 244.26389 27.05 243.62326Q27.7375 242.98264 28.846874 242.98264Q29.971874 242.98264 30.659374 243.63889Q31.346874 244.29514 31.346874 245.23264Q31.346874 245.82639 31.034374 246.26389Q30.721874 246.70139 30.08125 246.95139Q30.878124 247.20139 31.284374 247.77951Q31.690624 248.35764 31.690624 249.15451Q31.690624 250.24826 30.909374 250.99826Q30.14375 251.74826 28.8625 251.74826Q27.596874 251.74826 26.815624 250.99826Q26.034374 250.24826 26.034374 249.12326Q26.034374 248.27951 26.45625 247.71701Q26.89375 247.15451 27.675 246.95139ZM27.45625 245.15451Q27.45625 245.76389 27.846874 246.15451Q28.253124 246.54514 28.878124 246.54514Q29.4875 246.54514 29.878124 246.17014Q30.26875 245.77951 30.26875 245.21701Q30.26875 244.63889 29.8625 244.24826Q29.45625 243.84201 28.8625 243.84201Q28.253124 243.84201 27.846874 244.23264Q27.45625 244.62326 27.45625 245.15451ZM27.128124 249.12326Q27.128124 249.57639 27.33125 249.99826Q27.55 250.42014 27.971874 250.65451Q28.39375 250.88889 28.878124 250.88889Q29.628124 250.88889 30.1125 250.40451Q30.6125 249.92014 30.6125 249.17014Q30.6125 248.40451 30.1125 247.90451Q29.6125 247.40451 28.846874 247.40451Q28.096874 247.40451 27.6125 247.90451Q27.128124 248.38889 27.128124 249.12326ZM33.64375 251.60764L33.64375 250.40451L34.846874 250.40451L34.846874 251.60764L33.64375 251.60764ZM40.01875 251.60764L38.971874 251.60764L38.971874 244.88889Q38.58125 245.24826 37.95625 245.62326Q37.346874 245.98264 36.8625 246.15451L36.8625 245.13889Q37.7375 244.71701 38.39375 244.13889Q39.065624 243.54514 39.346874 242.98264L40.01875 242.98264L40.01875 251.60764ZM43.253124 245.07639Q43.253124 244.15451 43.70625 243.51389Q44.175 242.87326 45.05 242.87326Q45.8625 242.87326 46.39375 243.45139Q46.925 244.02951 46.925 245.13889Q46.925 246.23264 46.378124 246.82639Q45.846874 247.40451 45.065624 247.40451Q44.284374 247.40451 43.76875 246.82639Q43.253124 246.24826 43.253124 245.07639ZM45.08125 243.59201Q44.690624 243.59201 44.425 243.93576Q44.175 244.27951 44.175 245.18576Q44.175 246.01389 44.425 246.35764Q44.690624 246.68576 45.08125 246.68576Q45.4875 246.68576 45.7375 246.34201Q46.003124 245.99826 46.003124 245.10764Q46.003124 244.26389 45.7375 243.93576Q45.471874 243.59201 45.08125 243.59201ZM45.08125 251.92014L49.784374 242.87326L50.64375 242.87326L45.95625 251.92014L45.08125 251.92014ZM48.8 249.59201Q48.8 248.67014 49.253124 248.02951Q49.721874 247.38889 50.6125 247.38889Q51.425 247.38889 51.95625 247.96701Q52.4875 248.52951 52.4875 249.65451Q52.4875 250.74826 51.940624 251.34201Q51.409374 251.92014 50.6125 251.92014Q49.846874 251.92014 49.315624 251.34201Q48.8 250.76389 48.8 249.59201ZM50.64375 248.10764Q50.2375 248.10764 49.971874 248.45139Q49.721874 248.79514 49.721874 249.70139Q49.721874 250.51389 49.9875 250.85764Q50.253124 251.20139 50.64375 251.20139Q51.034374 251.20139 51.3 250.85764Q51.565624 250.51389 51.565624 249.60764Q51.565624 248.77951 51.3 248.45139Q51.034374 248.10764 50.64375 248.10764Z" fill-rule="nonzero"/><path stroke="#757575" stroke-width="1.0" stroke-linecap="butt" d="M18.55 239.10764L145.23334 239.10764L163.18327 239.10764" fill-rule="nonzero"/><path fill="#9e9e9e" d="M165.18327 239.10764C165.18327 238.00307 164.28784 237.10764 163.18327 237.10764C162.0787 237.10764 161.18327 238.00307 161.18327 239.10764C161.18327 240.2122 162.0787 241.10764 163.18327 241.10764C164.28784 241.10764 165.18327 240.2122 165.18327 239.10764" fill-rule="nonzero"/><path fill="#1a1a1a" d="M563.79376 163.75903L563.79376 160.11841L560.48126 155.16528L561.8719 155.16528L563.5594 157.75903Q564.02814 158.47778 564.4344 159.21216Q564.825 158.54028 565.3719 157.69653L567.04376 155.16528L568.35626 155.16528L564.9344 160.11841L564.9344 163.75903L563.79376 163.75903ZM572.4969 161.75903L573.59064 161.88403Q573.34064 162.83716 572.6375 163.36841Q571.9344 163.89966 570.85626 163.89966Q569.4969 163.89966 568.6844 163.05591Q567.8875 162.21216 567.8875 160.69653Q567.8875 159.13403 568.7 158.27466Q569.5125 157.39966 570.79376 157.39966Q572.04376 157.39966 572.825 158.24341Q573.6219 159.08716 573.6219 160.63403Q573.6219 160.72778 573.6219 160.91528L568.98126 160.91528Q569.04376 161.94653 569.5594 162.49341Q570.075 163.02466 570.85626 163.02466Q571.4344 163.02466 571.84064 162.72778Q572.2625 162.41528 572.4969 161.75903ZM569.04376 160.05591L572.5125 160.05591Q572.45 159.25903 572.1219 158.86841Q571.60626 158.25903 570.8094 158.25903Q570.075 158.25903 569.575 158.74341Q569.09064 159.22778 569.04376 160.05591ZM574.825 161.89966L575.85626 161.74341Q575.95 162.36841 576.34064 162.69653Q576.7469 163.02466 577.48126 163.02466Q578.2 163.02466 578.54376 162.74341Q578.90314 162.44653 578.90314 162.04028Q578.90314 161.68091 578.59064 161.47778Q578.3719 161.33716 577.5125 161.11841Q576.35626 160.82153 575.90314 160.61841Q575.46564 160.39966 575.23126 160.02466Q574.9969 159.64966 574.9969 159.18091Q574.9969 158.77466 575.1844 158.41528Q575.3719 158.05591 575.7 157.82153Q575.95 157.64966 576.3719 157.52466Q576.79376 157.39966 577.29376 157.39966Q578.0125 157.39966 578.5594 157.61841Q579.1219 157.82153 579.3875 158.18091Q579.65314 158.54028 579.7469 159.13403L578.71564 159.27466Q578.65314 158.80591 578.3094 158.54028Q577.98126 158.25903 577.35626 158.25903Q576.6375 158.25903 576.325 158.50903Q576.0125 158.74341 576.0125 159.07153Q576.0125 159.27466 576.1375 159.43091Q576.27814 159.60278 576.54376 159.71216Q576.7 159.77466 577.48126 159.97778Q578.60626 160.29028 579.04376 160.47778Q579.48126 160.66528 579.73126 161.02466Q579.98126 161.38403 579.98126 161.93091Q579.98126 162.46216 579.66876 162.93091Q579.3719 163.38403 578.79376 163.64966Q578.21564 163.89966 577.48126 163.89966Q576.2625 163.89966 575.6219 163.39966Q574.9969 162.88403 574.825 161.89966Z" fill-rule="nonzero"/><path fill="#9e9e9e" d="M550.325 180.75903L550.325 178.69653L546.60626 178.69653L546.60626 177.72778L550.52814 172.16528L551.3875 172.16528L551.3875 177.72778L552.54376 177.72778L552.54376 178.69653L551.3875 178.69653L551.3875 180.75903L550.325 180.75903ZM550.325 177.72778L550.325 173.86841L547.6375 177.72778L550.325 177.72778ZM557.91876 180.75903L556.8719 180.75903L556.8719 174.04028Q556.48126 174.39966 555.85626 174.77466Q555.2469 175.13403 554.7625 175.30591L554.7625 174.29028Q555.6375 173.86841 556.29376 173.29028Q556.96564 172.69653 557.2469 172.13403L557.91876 172.13403L557.91876 180.75903ZM561.54376 180.75903L561.54376 179.55591L562.7469 179.55591L562.7469 180.75903L561.54376 180.75903ZM564.10626 178.77466L565.1219 178.68091Q565.2469 179.39966 565.60626 179.72778Q565.98126 180.04028 566.54376 180.04028Q567.02814 180.04028 567.3875 179.82153Q567.7625 179.58716 567.9969 179.22778Q568.23126 178.85278 568.3875 178.22778Q568.54376 177.58716 568.54376 176.93091Q568.54376 176.85278 568.54376 176.71216Q568.23126 177.21216 567.6844 177.54028Q567.1375 177.85278 566.4969 177.85278Q565.41876 177.85278 564.6844 177.08716Q563.95 176.30591 563.95 175.04028Q563.95 173.72778 564.71564 172.93091Q565.4969 172.13403 566.65314 172.13403Q567.48126 172.13403 568.16876 172.58716Q568.8719 173.04028 569.23126 173.88403Q569.59064 174.71216 569.59064 176.29028Q569.59064 177.93091 569.23126 178.91528Q568.8875 179.88403 568.16876 180.39966Q567.46564 180.89966 566.52814 180.89966Q565.5125 180.89966 564.8719 180.35278Q564.23126 179.79028 564.10626 178.77466ZM568.41876 174.97778Q568.41876 174.07153 567.9344 173.54028Q567.46564 173.00903 566.77814 173.00903Q566.075 173.00903 565.54376 173.58716Q565.02814 174.14966 565.02814 175.07153Q565.02814 175.88403 565.52814 176.39966Q566.02814 176.91528 566.7469 176.91528Q567.48126 176.91528 567.95 176.39966Q568.41876 175.88403 568.41876 174.97778ZM571.15314 174.22778Q571.15314 173.30591 571.60626 172.66528Q572.075 172.02466 572.95 172.02466Q573.7625 172.02466 574.29376 172.60278Q574.825 173.18091 574.825 174.29028Q574.825 175.38403 574.27814 175.97778Q573.7469 176.55591 572.96564 176.55591Q572.1844 176.55591 571.66876 175.97778Q571.15314 175.39966 571.15314 174.22778ZM572.98126 172.74341Q572.59064 172.74341 572.325 173.08716Q572.075 173.43091 572.075 174.33716Q572.075 175.16528 572.325 175.50903Q572.59064 175.83716 572.98126 175.83716Q573.3875 175.83716 573.6375 175.49341Q573.90314 175.14966 573.90314 174.25903Q573.90314 173.41528 573.6375 173.08716Q573.3719 172.74341 572.98126 172.74341ZM572.98126 181.07153L577.6844 172.02466L578.54376 172.02466L573.85626 181.07153L572.98126 181.07153ZM576.7 178.74341Q576.7 177.82153 577.15314 177.18091Q577.6219 176.54028 578.5125 176.54028Q579.325 176.54028 579.85626 177.11841Q580.3875 177.68091 580.3875 178.80591Q580.3875 179.89966 579.84064 180.49341Q579.3094 181.07153 578.5125 181.07153Q577.7469 181.07153 577.21564 180.49341Q576.7 179.91528 576.7 178.74341ZM578.54376 177.25903Q578.1375 177.25903 577.8719 177.60278Q577.6219 177.94653 577.6219 178.85278Q577.6219 179.66528 577.8875 180.00903Q578.15314 180.35278 578.54376 180.35278Q578.9344 180.35278 579.2 180.00903Q579.46564 179.66528 579.46564 178.75903Q579.46564 177.93091 579.2 177.60278Q578.9344 177.25903 578.54376 177.25903Z" fill-rule="nonzero"/><path stroke="#757575" stroke-width="1.0" stroke-linecap="butt" d="M581.45 168.25903L454.76666 168.25903L436.8167 168.25903" fill-rule="nonzero"/><path fill="#9e9e9e" d="M438.8167 168.25903C438.8167 167.15446 437.9213 166.25903 436.8167 166.25903C435.71216 166.25903 434.8167 167.15446 434.8167 168.25903C434.8167 169.3636 435.71216 170.25903 436.8167 170.25903C437.9213 170.25903 438.8167 169.3636 438.8167 168.25903" fill-rule="nonzero"/><path fill="#757575" d="M20.003124 23.2375L25.284374 23.2375Q27.065624 23.2375 28.003124 23.503124Q29.26875 23.878124 30.159374 24.83125Q31.065624 25.76875 31.534374 27.14375Q32.003124 28.51875 32.003124 30.534374Q32.003124 32.3 31.565624 33.58125Q31.01875 35.14375 30.01875 36.096874Q29.26875 36.83125 27.9875 37.253124Q27.034374 37.55 25.440624 37.55L20.003124 37.55L20.003124 23.2375ZM22.89375 25.659374L22.89375 35.14375L25.05 35.14375Q26.253124 35.14375 26.8 35.003124Q27.503124 34.83125 27.95625 34.409374Q28.425 33.9875 28.70625 33.034374Q29.003124 32.065624 29.003124 30.39375Q29.003124 28.7375 28.70625 27.846874Q28.425 26.95625 27.89375 26.471874Q27.3625 25.971874 26.565624 25.784374Q25.95625 25.659374 24.190624 25.659374L22.89375 25.659374ZM33.346874 32.221874Q33.346874 30.846874 34.01875 29.565624Q34.70625 28.284374 35.940624 27.6125Q37.175 26.940624 38.690624 26.940624Q41.05 26.940624 42.55 28.471874Q44.05 30.003124 44.05 32.33125Q44.05 34.690624 42.534374 36.2375Q41.01875 37.784374 38.70625 37.784374Q37.284374 37.784374 35.9875 37.14375Q34.70625 36.4875 34.01875 35.253124Q33.346874 34.003124 33.346874 32.221874ZM36.159374 32.3625Q36.159374 33.909374 36.89375 34.7375Q37.628124 35.55 38.70625 35.55Q39.784374 35.55 40.503124 34.7375Q41.2375 33.909374 41.2375 32.346874Q41.2375 30.815624 40.503124 30.003124Q39.784374 29.175 38.70625 29.175Q37.628124 29.175 36.89375 30.003124Q36.159374 30.815624 36.159374 32.3625ZM50.690624 27.175L53.6125 27.175L56.08125 34.534374L58.503124 27.175L61.346874 27.175L57.690624 37.159374L57.034374 38.971874Q56.675 39.878124 56.346874 40.346874Q56.01875 40.83125 55.596874 41.128124Q55.175 41.425 54.55 41.58125Q53.925 41.753124 53.14375 41.753124Q52.3625 41.753124 51.596874 41.596874L51.346874 39.440624Q52.003124 39.565624 52.51875 39.565624Q53.471874 39.565624 53.925 39.003124Q54.39375 38.45625 54.628124 37.58125L50.690624 27.175ZM62.346874 32.221874Q62.346874 30.846874 63.01875 29.565624Q63.70625 28.284374 64.94063 27.6125Q66.175 26.940624 67.69063 26.940624Q70.05 26.940624 71.55 28.471874Q73.05 30.003124 73.05 32.33125Q73.05 34.690624 71.53438 36.2375Q70.01875 37.784374 67.70625 37.784374Q66.28438 37.784374 64.9875 37.14375Q63.70625 36.4875 63.01875 35.253124Q62.346874 34.003124 62.346874 32.221874ZM65.15938 32.3625Q65.15938 33.909374 65.89375 34.7375Q66.62813 35.55 67.70625 35.55Q68.78438 35.55 69.50313 34.7375Q70.2375 33.909374 70.2375 32.346874Q70.2375 30.815624 69.50313 30.003124Q68.78438 29.175 67.70625 29.175Q66.62813 29.175 65.89375 30.003124Q65.15938 30.815624 65.15938 32.3625ZM81.81563 37.55L81.81563 36.003124Q81.25313 36.83125 80.31563 37.315624Q79.39375 37.784374 78.37813 37.784374Q77.33125 37.784374 76.50313 37.33125Q75.675 36.8625 75.3 36.034374Q74.925 35.20625 74.925 33.7375L74.925 27.175L77.675 27.175L77.675 31.940624Q77.675 34.128124 77.81563 34.628124Q77.97188 35.1125 78.3625 35.409374Q78.76875 35.690624 79.39375 35.690624Q80.09688 35.690624 80.64375 35.315624Q81.20625 34.925 81.40938 34.3625Q81.6125 33.784374 81.6125 31.55L81.6125 27.175L84.3625 27.175L84.3625 37.55L81.81563 37.55ZM97.7375 27.175L97.7375 29.3625L95.8625 29.3625L95.8625 33.55Q95.8625 34.815624 95.90938 35.034374Q95.97188 35.2375 96.15938 35.378124Q96.3625 35.503124 96.62813 35.503124Q97.00313 35.503124 97.7375 35.2375L97.97188 37.378124Q97.00313 37.784374 95.8 37.784374Q95.05 37.784374 94.45625 37.534374Q93.8625 37.284374 93.58125 36.89375Q93.31563 36.4875 93.20625 35.815624Q93.1125 35.346874 93.1125 33.89375L93.1125 29.3625L91.84688 29.3625L91.84688 27.175L93.1125 27.175L93.1125 25.1125L95.8625 23.51875L95.8625 27.175L97.7375 27.175ZM102.72188 23.2375L102.72188 28.503124Q104.05 26.940624 105.89375 26.940624Q106.84688 26.940624 107.59688 27.3Q108.3625 27.64375 108.75313 28.190624Q109.14375 28.7375 109.28438 29.409374Q109.425 30.065624 109.425 31.471874L109.425 37.55L106.675 37.55L106.675 32.065624Q106.675 30.440624 106.51875 30.003124Q106.3625 29.565624 105.95625 29.315624Q105.56563 29.05 104.97188 29.05Q104.3 29.05 103.75313 29.378124Q103.22188 29.70625 102.97188 30.378124Q102.72188 31.05 102.72188 32.346874L102.72188 37.55L99.97188 37.55L99.97188 23.2375L102.72188 23.2375ZM111.9875 25.76875L111.9875 23.2375L114.7375 23.2375L114.7375 25.76875L111.9875 25.76875ZM111.9875 37.55L111.9875 27.175L114.7375 27.175L114.7375 37.55L111.9875 37.55ZM126.425 37.55L123.675 37.55L123.675 32.253124Q123.675 30.58125 123.50313 30.096874Q123.33125 29.596874 122.925 29.33125Q122.53438 29.05 121.97188 29.05Q121.26875 29.05 120.69063 29.440624Q120.12813 29.83125 119.90938 30.471874Q119.70625 31.1125 119.70625 32.846874L119.70625 37.55L116.97188 37.55L116.97188 27.175L119.51875 27.175L119.51875 28.70625Q120.87813 26.940624 122.94063 26.940624Q123.84688 26.940624 124.59688 27.26875Q125.34688 27.596874 125.72188 28.1125Q126.1125 28.6125 126.26875 29.26875Q126.425 29.909374 126.425 31.096874L126.425 37.55ZM128.89375 37.55L128.89375 23.2375L131.62813 23.2375L131.62813 30.83125L134.84688 27.175L138.22188 27.175L134.675 30.971874L138.47188 37.55L135.51875 37.55L132.90938 32.89375L131.62813 34.221874L131.62813 37.55L128.89375 37.55ZM145.9875 25.76875L145.9875 23.2375L148.7375 23.2375L148.7375 25.76875L145.9875 25.76875ZM145.9875 37.55L145.9875 27.175L148.7375 27.175L148.7375 37.55L145.9875 37.55ZM155.7375 27.175L155.7375 29.3625L153.8625 29.3625L153.8625 33.55Q153.8625 34.815624 153.90938 35.034374Q153.97188 35.2375 154.15938 35.378124Q154.3625 35.503124 154.62813 35.503124Q155.00313 35.503124 155.7375 35.2375L155.97188 37.378124Q155.00313 37.784374 153.8 37.784374Q153.05 37.784374 152.45625 37.534374Q151.8625 37.284374 151.58125 36.89375Q151.31563 36.4875 151.20625 35.815624Q151.1125 35.346874 151.1125 33.89375L151.1125 29.3625L149.84688 29.3625L149.84688 27.175L151.1125 27.175L151.1125 25.1125L153.8625 23.51875L153.8625 27.175L155.7375 27.175ZM163.9875 25.76875L163.9875 23.2375L166.7375 23.2375L166.7375 25.76875L163.9875 25.76875ZM163.9875 37.55L163.9875 27.175L166.7375 27.175L166.7375 37.55L163.9875 37.55ZM168.01875 34.596874L170.76875 34.175Q170.95625 34.971874 171.4875 35.39375Q172.01875 35.8 172.9875 35.8Q174.05 35.8 174.59688 35.409374Q174.95625 35.14375 174.95625 34.675Q174.95625 34.3625 174.75313 34.159374Q174.55 33.971874 173.84688 33.8Q170.51875 33.065624 169.62813 32.45625Q168.39375 31.628124 168.39375 30.128124Q168.39375 28.784374 169.45625 27.8625Q170.53438 26.940624 172.76875 26.940624Q174.89375 26.940624 175.925 27.64375Q176.97188 28.33125 177.3625 29.690624L174.76875 30.159374Q174.59688 29.565624 174.12813 29.2375Q173.675 28.909374 172.81563 28.909374Q171.7375 28.909374 171.26875 29.221874Q170.95625 29.440624 170.95625 29.76875Q170.95625 30.065624 171.22188 30.26875Q171.59688 30.55 173.78438 31.05Q175.97188 31.55 176.84688 32.26875Q177.70625 33.003124 177.70625 34.3Q177.70625 35.7375 176.51875 36.76875Q175.33125 37.784374 172.9875 37.784374Q170.87813 37.784374 169.62813 36.925Q168.39375 36.065624 168.01875 34.596874ZM191.9875 34.253124L194.72188 34.70625Q194.20625 36.20625 193.06563 37.003124Q191.925 37.784374 190.22188 37.784374Q187.50313 37.784374 186.20625 36.01875Q185.19063 34.596874 185.19063 32.440624Q185.19063 29.8625 186.53438 28.409374Q187.87813 26.940624 189.94063 26.940624Q192.25313 26.940624 193.58125 28.471874Q194.925 30.003124 194.87813 33.159374L188.00313 33.159374Q188.03438 34.378124 188.65938 35.065624Q189.3 35.7375 190.2375 35.7375Q190.89375 35.7375 191.33125 35.39375Q191.76875 35.034374 191.9875 34.253124ZM192.14375 31.471874Q192.1125 30.284374 191.51875 29.675Q190.94063 29.05 190.1125 29.05Q189.20625 29.05 188.62813 29.690624Q188.03438 30.346874 188.05 31.471874L192.14375 31.471874ZM199.03438 30.346874L196.55 29.89375Q196.97188 28.39375 197.9875 27.675Q199.01875 26.940624 201.03438 26.940624Q202.87813 26.940624 203.76875 27.378124Q204.675 27.815624 205.03438 28.4875Q205.40938 29.14375 205.40938 30.940624L205.37813 34.14375Q205.37813 35.503124 205.50313 36.159374Q205.64375 36.8 206.00313 37.55L203.28438 37.55Q203.175 37.26875 203.01875 36.7375Q202.95625 36.4875 202.925 36.409374Q202.22188 37.096874 201.40938 37.440624Q200.6125 37.784374 199.70625 37.784374Q198.1125 37.784374 197.19063 36.925Q196.26875 36.05 196.26875 34.721874Q196.26875 33.83125 196.675 33.14375Q197.09688 32.45625 197.84688 32.096874Q198.6125 31.721874 200.05 31.45625Q201.97188 31.096874 202.70625 30.784374L202.70625 30.503124Q202.70625 29.721874 202.31563 29.39375Q201.925 29.05 200.84688 29.05Q200.1125 29.05 199.69063 29.33125Q199.28438 29.6125 199.03438 30.346874ZM202.70625 32.565624Q202.175 32.7375 201.03438 32.9875Q199.89375 33.2375 199.55 33.471874Q199.00313 33.846874 199.00313 34.440624Q199.00313 35.003124 199.425 35.425Q199.8625 35.846874 200.53438 35.846874Q201.26875 35.846874 201.94063 35.3625Q202.44063 34.9875 202.59688 34.45625Q202.70625 34.096874 202.70625 33.1125L202.70625 32.565624ZM207.01875 34.596874L209.76875 34.175Q209.95625 34.971874 210.4875 35.39375Q211.01875 35.8 211.9875 35.8Q213.05 35.8 213.59688 35.409374Q213.95625 35.14375 213.95625 34.675Q213.95625 34.3625 213.75313 34.159374Q213.55 33.971874 212.84688 33.8Q209.51875 33.065624 208.62813 32.45625Q207.39375 31.628124 207.39375 30.128124Q207.39375 28.784374 208.45625 27.8625Q209.53438 26.940624 211.76875 26.940624Q213.89375 26.940624 214.925 27.64375Q215.97188 28.33125 216.3625 29.690624L213.76875 30.159374Q213.59688 29.565624 213.12813 29.2375Q212.675 28.909374 211.81563 28.909374Q210.7375 28.909374 210.26875 29.221874Q209.95625 29.440624 209.95625 29.76875Q209.95625 30.065624 210.22188 30.26875Q210.59688 30.55 212.78438 31.05Q214.97188 31.55 215.84688 32.26875Q216.70625 33.003124 216.70625 34.3Q216.70625 35.7375 215.51875 36.76875Q214.33125 37.784374 211.9875 37.784374Q209.87813 37.784374 208.62813 36.925Q207.39375 36.065624 207.01875 34.596874ZM217.69063 27.175L220.6125 27.175L223.08125 34.534374L225.50313 27.175L228.34688 27.175L224.69063 37.159374L224.03438 38.971874Q223.675 39.878124 223.34688 40.346874Q223.01875 40.83125 222.59688 41.128124Q222.175 41.425 221.55 41.58125Q220.925 41.753124 220.14375 41.753124Q219.3625 41.753124 218.59688 41.596874L218.34688 39.440624Q219.00313 39.565624 219.51875 39.565624Q220.47188 39.565624 220.925 39.003124Q221.39375 38.45625 221.62813 37.58125L217.69063 27.175ZM240.7375 27.175L240.7375 29.3625L238.8625 29.3625L238.8625 33.55Q238.8625 34.815624 238.90938 35.034374Q238.97188 35.2375 239.15938 35.378124Q239.3625 35.503124 239.62813 35.503124Q240.00313 35.503124 240.7375 35.2375L240.97188 37.378124Q240.00313 37.784374 238.8 37.784374Q238.05 37.784374 237.45625 37.534374Q236.8625 37.284374 236.58125 36.89375Q236.31563 36.4875 236.20625 35.815624Q236.1125 35.346874 236.1125 33.89375L236.1125 29.3625L234.84688 29.3625L234.84688 27.175L236.1125 27.175L236.1125 25.1125L238.8625 23.51875L238.8625 27.175L240.7375 27.175ZM242.34688 32.221874Q242.34688 30.846874 243.01875 29.565624Q243.70625 28.284374 244.94063 27.6125Q246.175 26.940624 247.69063 26.940624Q250.05 26.940624 251.55 28.471874Q253.05 30.003124 253.05 32.33125Q253.05 34.690624 251.53438 36.2375Q250.01875 37.784374 247.70625 37.784374Q246.28438 37.784374 244.9875 37.14375Q243.70625 36.4875 243.01875 35.253124Q242.34688 34.003124 242.34688 32.221874ZM245.15938 32.3625Q245.15938 33.909374 245.89375 34.7375Q246.62813 35.55 247.70625 35.55Q248.78438 35.55 249.50313 34.7375Q250.2375 33.909374 250.2375 32.346874Q250.2375 30.815624 249.50313 30.003124Q248.78438 29.175 247.70625 29.175Q246.62813 29.175 245.89375 30.003124Q245.15938 30.815624 245.15938 32.3625ZM260.9875 37.55L260.9875 23.2375L263.7375 23.2375L263.7375 37.55L260.9875 37.55ZM271.9875 34.253124L274.72186 34.70625Q274.20624 36.20625 273.0656 37.003124Q271.925 37.784374 270.22186 37.784374Q267.5031 37.784374 266.20624 36.01875Q265.1906 34.596874 265.1906 32.440624Q265.1906 29.8625 266.53436 28.409374Q267.8781 26.940624 269.9406 26.940624Q272.2531 26.940624 273.58124 28.471874Q274.925 30.003124 274.8781 33.159374L268.0031 33.159374Q268.03436 34.378124 268.65936 35.065624Q269.3 35.7375 270.2375 35.7375Q270.89374 35.7375 271.33124 35.39375Q271.76874 35.034374 271.9875 34.253124ZM272.14374 31.471874Q272.1125 30.284374 271.51874 29.675Q270.9406 29.05 270.1125 29.05Q269.20624 29.05 268.6281 29.690624Q268.03436 30.346874 268.05 31.471874L272.14374 31.471874ZM276.7375 38.2375L279.8625 38.6125Q279.9406 39.159374 280.22186 39.3625Q280.6125 39.659374 281.45624 39.659374Q282.53436 39.659374 283.0656 39.33125Q283.425 39.128124 283.6125 38.64375Q283.7375 38.3 283.7375 37.378124L283.7375 35.8625Q282.51874 37.55 280.64374 37.55Q278.55 37.55 277.33124 35.784374Q276.3781 34.378124 276.3781 32.3Q276.3781 29.690624 277.6281 28.315624Q278.8781 26.940624 280.7531 26.940624Q282.675 26.940624 283.925 28.628124L283.925 27.175L286.4875 27.175L286.4875 36.4875Q286.4875 38.315624 286.175 39.221874Q285.8781 40.14375 285.33124 40.659374Q284.78436 41.175 283.8625 41.45625Q282.95624 41.753124 281.5656 41.753124Q278.925 41.753124 277.8156 40.846874Q276.72186 39.95625 276.72186 38.565624Q276.72186 38.425 276.7375 38.2375ZM279.1906 32.14375Q279.1906 33.8 279.8156 34.565624Q280.45624 35.33125 281.39374 35.33125Q282.40936 35.33125 283.09686 34.55Q283.8 33.753124 283.8 32.221874Q283.8 30.6125 283.1281 29.83125Q282.47186 29.05 281.45624 29.05Q280.45624 29.05 279.8156 29.815624Q279.1906 30.58125 279.1906 32.14375ZM291.03436 30.346874L288.55 29.89375Q288.97186 28.39375 289.9875 27.675Q291.01874 26.940624 293.03436 26.940624Q294.8781 26.940624 295.76874 27.378124Q296.675 27.815624 297.03436 28.4875Q297.40936 29.14375 297.40936 30.940624L297.3781 34.14375Q297.3781 35.503124 297.5031 36.159374Q297.64374 36.8 298.0031 37.55L295.28436 37.55Q295.175 37.26875 295.01874 36.7375Q294.95624 36.4875 294.925 36.409374Q294.22186 37.096874 293.40936 37.440624Q292.6125 37.784374 291.70624 37.784374Q290.1125 37.784374 289.1906 36.925Q288.26874 36.05 288.26874 34.721874Q288.26874 33.83125 288.675 33.14375Q289.09686 32.45625 289.84686 32.096874Q290.6125 31.721874 292.05 31.45625Q293.97186 31.096874 294.70624 30.784374L294.70624 30.503124Q294.70624 29.721874 294.3156 29.39375Q293.925 29.05 292.84686 29.05Q292.1125 29.05 291.6906 29.33125Q291.28436 29.6125 291.03436 30.346874ZM294.70624 32.565624Q294.175 32.7375 293.03436 32.9875Q291.89374 33.2375 291.55 33.471874Q291.0031 33.846874 291.0031 34.440624Q291.0031 35.003124 291.425 35.425Q291.8625 35.846874 292.53436 35.846874Q293.26874 35.846874 293.9406 35.3625Q294.4406 34.9875 294.59686 34.45625Q294.70624 34.096874 294.70624 33.1125L294.70624 32.565624ZM299.9875 37.55L299.9875 23.2375L302.7375 23.2375L302.7375 37.55L299.9875 37.55ZM304.9875 37.55L304.9875 23.2375L307.7375 23.2375L307.7375 37.55L304.9875 37.55ZM308.6906 27.175L311.6125 27.175L314.08124 34.534374L316.5031 27.175L319.34686 27.175L315.6906 37.159374L315.03436 38.971874Q314.675 39.878124 314.34686 40.346874Q314.01874 40.83125 313.59686 41.128124Q313.175 41.425 312.55 41.58125Q311.925 41.753124 311.14374 41.753124Q310.3625 41.753124 309.59686 41.596874L309.34686 39.440624Q310.0031 39.565624 310.51874 39.565624Q311.47186 39.565624 311.925 39.003124Q312.39374 38.45625 312.6281 37.58125L308.6906 27.175ZM329.03436 30.346874L326.55 29.89375Q326.97186 28.39375 327.9875 27.675Q329.01874 26.940624 331.03436 26.940624Q332.8781 26.940624 333.76874 27.378124Q334.675 27.815624 335.03436 28.4875Q335.40936 29.14375 335.40936 30.940624L335.3781 34.14375Q335.3781 35.503124 335.5031 36.159374Q335.64374 36.8 336.0031 37.55L333.28436 37.55Q333.175 37.26875 333.01874 36.7375Q332.95624 36.4875 332.925 36.409374Q332.22186 37.096874 331.40936 37.440624Q330.6125 37.784374 329.70624 37.784374Q328.1125 37.784374 327.1906 36.925Q326.26874 36.05 326.26874 34.721874Q326.26874 33.83125 326.675 33.14375Q327.09686 32.45625 327.84686 32.096874Q328.6125 31.721874 330.05 31.45625Q331.97186 31.096874 332.70624 30.784374L332.70624 30.503124Q332.70624 29.721874 332.3156 29.39375Q331.925 29.05 330.84686 29.05Q330.1125 29.05 329.6906 29.33125Q329.28436 29.6125 329.03436 30.346874ZM332.70624 32.565624Q332.175 32.7375 331.03436 32.9875Q329.89374 33.2375 329.55 33.471874Q329.0031 33.846874 329.0031 34.440624Q329.0031 35.003124 329.425 35.425Q329.8625 35.846874 330.53436 35.846874Q331.26874 35.846874 331.9406 35.3625Q332.4406 34.9875 332.59686 34.45625Q332.70624 34.096874 332.70624 33.1125L332.70624 32.565624ZM347.03436 30.2375L344.33124 30.7375Q344.1906 29.925 343.70624 29.51875Q343.22186 29.096874 342.45624 29.096874Q341.425 29.096874 340.8156 29.815624Q340.20624 30.51875 340.20624 32.175Q340.20624 34.01875 340.8156 34.784374Q341.4406 35.55 342.4875 35.55Q343.26874 35.55 343.76874 35.1125Q344.26874 34.659374 344.47186 33.58125L347.15936 34.034374Q346.7531 35.89375 345.55 36.846874Q344.3625 37.784374 342.3625 37.784374Q340.08124 37.784374 338.72186 36.346874Q337.3781 34.909374 337.3781 32.378124Q337.3781 29.8 338.7375 28.378124Q340.09686 26.940624 342.40936 26.940624Q344.3 26.940624 345.40936 27.76875Q346.53436 28.58125 347.03436 30.2375ZM358.03436 30.2375L355.33124 30.7375Q355.1906 29.925 354.70624 29.51875Q354.22186 29.096874 353.45624 29.096874Q352.425 29.096874 351.8156 29.815624Q351.20624 30.51875 351.20624 32.175Q351.20624 34.01875 351.8156 34.784374Q352.4406 35.55 353.4875 35.55Q354.26874 35.55 354.76874 35.1125Q355.26874 34.659374 355.47186 33.58125L358.15936 34.034374Q357.7531 35.89375 356.55 36.846874Q355.3625 37.784374 353.3625 37.784374Q351.08124 37.784374 349.72186 36.346874Q348.3781 34.909374 348.3781 32.378124Q348.3781 29.8 349.7375 28.378124Q351.09686 26.940624 353.40936 26.940624Q355.3 26.940624 356.40936 27.76875Q357.53436 28.58125 358.03436 30.2375ZM365.9875 34.253124L368.72186 34.70625Q368.20624 36.20625 367.0656 37.003124Q365.925 37.784374 364.22186 37.784374Q361.5031 37.784374 360.20624 36.01875Q359.1906 34.596874 359.1906 32.440624Q359.1906 29.8625 360.53436 28.409374Q361.8781 26.940624 363.9406 26.940624Q366.2531 26.940624 367.58124 28.471874Q368.925 30.003124 368.8781 33.159374L362.0031 33.159374Q362.03436 34.378124 362.65936 35.065624Q363.3 35.7375 364.2375 35.7375Q364.89374 35.7375 365.33124 35.39375Q365.76874 35.034374 365.9875 34.253124ZM366.14374 31.471874Q366.1125 30.284374 365.51874 29.675Q364.9406 29.05 364.1125 29.05Q363.20624 29.05 362.6281 29.690624Q362.03436 30.346874 362.05 31.471874L366.14374 31.471874ZM370.01874 34.596874L372.76874 34.175Q372.95624 34.971874 373.4875 35.39375Q374.01874 35.8 374.9875 35.8Q376.05 35.8 376.59686 35.409374Q376.95624 35.14375 376.95624 34.675Q376.95624 34.3625 376.7531 34.159374Q376.55 33.971874 375.84686 33.8Q372.51874 33.065624 371.6281 32.45625Q370.39374 31.628124 370.39374 30.128124Q370.39374 28.784374 371.45624 27.8625Q372.53436 26.940624 374.76874 26.940624Q376.89374 26.940624 377.925 27.64375Q378.97186 28.33125 379.3625 29.690624L376.76874 30.159374Q376.59686 29.565624 376.1281 29.2375Q375.675 28.909374 374.8156 28.909374Q373.7375 28.909374 373.26874 29.221874Q372.95624 29.440624 372.95624 29.76875Q372.95624 30.065624 373.22186 30.26875Q373.59686 30.55 375.78436 31.05Q377.97186 31.55 378.84686 32.26875Q379.70624 33.003124 379.70624 34.3Q379.70624 35.7375 378.51874 36.76875Q377.33124 37.784374 374.9875 37.784374Q372.8781 37.784374 371.6281 36.925Q370.39374 36.065624 370.01874 34.596874ZM381.01874 34.596874L383.76874 34.175Q383.95624 34.971874 384.4875 35.39375Q385.01874 35.8 385.9875 35.8Q387.05 35.8 387.59686 35.409374Q387.95624 35.14375 387.95624 34.675Q387.95624 34.3625 387.7531 34.159374Q387.55 33.971874 386.84686 33.8Q383.51874 33.065624 382.6281 32.45625Q381.39374 31.628124 381.39374 30.128124Q381.39374 28.784374 382.45624 27.8625Q383.53436 26.940624 385.76874 26.940624Q387.89374 26.940624 388.925 27.64375Q389.97186 28.33125 390.3625 29.690624L387.76874 30.159374Q387.59686 29.565624 387.1281 29.2375Q386.675 28.909374 385.8156 28.909374Q384.7375 28.909374 384.26874 29.221874Q383.95624 29.440624 383.95624 29.76875Q383.95624 30.065624 384.22186 30.26875Q384.59686 30.55 386.78436 31.05Q388.97186 31.55 389.84686 32.26875Q390.70624 33.003124 390.70624 34.3Q390.70624 35.7375 389.51874 36.76875Q388.33124 37.784374 385.9875 37.784374Q383.8781 37.784374 382.6281 36.925Q381.39374 36.065624 381.01874 34.596874ZM403.7375 27.175L403.7375 29.3625L401.8625 29.3625L401.8625 33.55Q401.8625 34.815624 401.90936 35.034374Q401.97186 35.2375 402.15936 35.378124Q402.3625 35.503124 402.6281 35.503124Q403.0031 35.503124 403.7375 35.2375L403.97186 37.378124Q403.0031 37.784374 401.8 37.784374Q401.05 37.784374 400.45624 37.534374Q399.8625 37.284374 399.58124 36.89375Q399.3156 36.4875 399.20624 35.815624Q399.1125 35.346874 399.1125 33.89375L399.1125 29.3625L397.84686 29.3625L397.84686 27.175L399.1125 27.175L399.1125 25.1125L401.8625 23.51875L401.8625 27.175L403.7375 27.175ZM411.9875 34.253124L414.72186 34.70625Q414.20624 36.20625 413.0656 37.003124Q411.925 37.784374 410.22186 37.784374Q407.5031 37.784374 406.20624 36.01875Q405.1906 34.596874 405.1906 32.440624Q405.1906 29.8625 406.53436 28.409374Q407.8781 26.940624 409.9406 26.940624Q412.2531 26.940624 413.58124 28.471874Q414.925 30.003124 414.8781 33.159374L408.0031 33.159374Q408.03436 34.378124 408.65936 35.065624Q409.3 35.7375 410.2375 35.7375Q410.89374 35.7375 411.33124 35.39375Q411.76874 35.034374 411.9875 34.253124ZM412.14374 31.471874Q412.1125 30.284374 411.51874 29.675Q410.9406 29.05 410.1125 29.05Q409.20624 29.05 408.6281 29.690624Q408.03436 30.346874 408.05 31.471874L412.14374 31.471874ZM415.675 37.55L419.40936 32.20625L415.83124 27.175L419.175 27.175L421.0031 30.034374L422.9406 27.175L426.15936 27.175L422.64374 32.096874L426.4875 37.55L423.1125 37.55L421.0031 34.33125L418.8781 37.55L415.675 37.55ZM432.7375 27.175L432.7375 29.3625L430.8625 29.3625L430.8625 33.55Q430.8625 34.815624 430.90936 35.034374Q430.97186 35.2375 431.15936 35.378124Q431.3625 35.503124 431.6281 35.503124Q432.0031 35.503124 432.7375 35.2375L432.97186 37.378124Q432.0031 37.784374 430.8 37.784374Q430.05 37.784374 429.45624 37.534374Q428.8625 37.284374 428.58124 36.89375Q428.3156 36.4875 428.20624 35.815624Q428.1125 35.346874 428.1125 33.89375L428.1125 29.3625L426.84686 29.3625L426.84686 27.175L428.1125 27.175L428.1125 25.1125L430.8625 23.51875L430.8625 27.175L432.7375 27.175ZM434.8625 37.55L434.8625 23.2375L437.6125 23.2375L437.6125 28.39375Q438.8781 26.940624 440.6281 26.940624Q442.51874 26.940624 443.7531 28.315624Q445.0031 29.690624 445.0031 32.253124Q445.0031 34.909374 443.7375 36.346874Q442.47186 37.784374 440.65936 37.784374Q439.76874 37.784374 438.90936 37.346874Q438.05 36.89375 437.425 36.01875L437.425 37.55L434.8625 37.55ZM437.59686 32.14375Q437.59686 33.753124 438.09686 34.51875Q438.8156 35.6125 440.0031 35.6125Q440.90936 35.6125 441.55 34.846874Q442.1906 34.065624 442.1906 32.39375Q442.1906 30.6125 441.53436 29.83125Q440.89374 29.05 439.89374 29.05Q438.90936 29.05 438.2531 29.815624Q437.59686 30.58125 437.59686 32.14375ZM446.34686 32.221874Q446.34686 30.846874 447.01874 29.565624Q447.70624 28.284374 448.9406 27.6125Q450.175 26.940624 451.6906 26.940624Q454.05 26.940624 455.55 28.471874Q457.05 30.003124 457.05 32.33125Q457.05 34.690624 455.53436 36.2375Q454.01874 37.784374 451.70624 37.784374Q450.28436 37.784374 448.9875 37.14375Q447.70624 36.4875 447.01874 35.253124Q446.34686 34.003124 446.34686 32.221874ZM449.15936 32.3625Q449.15936 33.909374 449.89374 34.7375Q450.6281 35.55 451.70624 35.55Q452.78436 35.55 453.5031 34.7375Q454.2375 33.909374 454.2375 32.346874Q454.2375 30.815624 453.5031 30.003124Q452.78436 29.175 451.70624 29.175Q450.6281 29.175 449.89374 30.003124Q449.15936 30.815624 449.15936 32.3625ZM458.34686 32.221874Q458.34686 30.846874 459.01874 29.565624Q459.70624 28.284374 460.9406 27.6125Q462.175 26.940624 463.6906 26.940624Q466.05 26.940624 467.55 28.471874Q469.05 30.003124 469.05 32.33125Q469.05 34.690624 467.53436 36.2375Q466.01874 37.784374 463.70624 37.784374Q462.28436 37.784374 460.9875 37.14375Q459.70624 36.4875 459.01874 35.253124Q458.34686 34.003124 458.34686 32.221874ZM461.15936 32.3625Q461.15936 33.909374 461.89374 34.7375Q462.6281 35.55 463.70624 35.55Q464.78436 35.55 465.5031 34.7375Q466.2375 33.909374 466.2375 32.346874Q466.2375 30.815624 465.5031 30.003124Q464.78436 29.175 463.70624 29.175Q462.6281 29.175 461.89374 30.003124Q461.15936 30.815624 461.15936 32.3625ZM470.89374 37.55L470.89374 23.2375L473.6281 23.2375L473.6281 30.83125L476.84686 27.175L480.22186 27.175L476.675 30.971874L480.47186 37.55L477.51874 37.55L474.90936 32.89375L473.6281 34.221874L473.6281 37.55L470.89374 37.55ZM481.01874 34.596874L483.76874 34.175Q483.95624 34.971874 484.4875 35.39375Q485.01874 35.8 485.9875 35.8Q487.05 35.8 487.59686 35.409374Q487.95624 35.14375 487.95624 34.675Q487.95624 34.3625 487.7531 34.159374Q487.55 33.971874 486.84686 33.8Q483.51874 33.065624 482.6281 32.45625Q481.39374 31.628124 481.39374 30.128124Q481.39374 28.784374 482.45624 27.8625Q483.53436 26.940624 485.76874 26.940624Q487.89374 26.940624 488.925 27.64375Q489.97186 28.33125 490.3625 29.690624L487.76874 30.159374Q487.59686 29.565624 487.1281 29.2375Q486.675 28.909374 485.8156 28.909374Q484.7375 28.909374 484.26874 29.221874Q483.95624 29.440624 483.95624 29.76875Q483.95624 30.065624 484.22186 30.26875Q484.59686 30.55 486.78436 31.05Q488.97186 31.55 489.84686 32.26875Q490.70624 33.003124 490.70624 34.3Q490.70624 35.7375 489.51874 36.76875Q488.33124 37.784374 485.9875 37.784374Q483.8781 37.784374 482.6281 36.925Q481.39374 36.065624 481.01874 34.596874ZM498.34686 32.221874Q498.34686 30.846874 499.01874 29.565624Q499.70624 28.284374 500.9406 27.6125Q502.175 26.940624 503.6906 26.940624Q506.05 26.940624 507.55 28.471874Q509.05 30.003124 509.05 32.33125Q509.05 34.690624 507.53436 36.2375Q506.01874 37.784374 503.70624 37.784374Q502.28436 37.784374 500.9875 37.14375Q499.70624 36.4875 499.01874 35.253124Q498.34686 34.003124 498.34686 32.221874ZM501.15936 32.3625Q501.15936 33.909374 501.89374 34.7375Q502.6281 35.55 503.70624 35.55Q504.78436 35.55 505.5031 34.7375Q506.2375 33.909374 506.2375 32.346874Q506.2375 30.815624 505.5031 30.003124Q504.78436 29.175 503.70624 29.175Q502.6281 29.175 501.89374 30.003124Q501.15936 30.815624 501.15936 32.3625ZM520.425 37.55L517.675 37.55L517.675 32.253124Q517.675 30.58125 517.5031 30.096874Q517.33124 29.596874 516.925 29.33125Q516.53436 29.05 515.97186 29.05Q515.26874 29.05 514.6906 29.440624Q514.1281 29.83125 513.90936 30.471874Q513.70624 31.1125 513.70624 32.846874L513.70624 37.55L510.97186 37.55L510.97186 27.175L513.51874 27.175L513.51874 28.70625Q514.8781 26.940624 516.9406 26.940624Q517.84686 26.940624 518.59686 27.26875Q519.34686 27.596874 519.72186 28.1125Q520.1125 28.6125 520.26874 29.26875Q520.425 29.909374 520.425 31.096874L520.425 37.55ZM522.9875 37.55L522.9875 23.2375L525.7375 23.2375L525.7375 37.55L522.9875 37.55ZM527.9875 25.76875L527.9875 23.2375L530.7375 23.2375L530.7375 25.76875L527.9875 25.76875ZM527.9875 37.55L527.9875 27.175L530.7375 27.175L530.7375 37.55L527.9875 37.55ZM542.425 37.55L539.675 37.55L539.675 32.253124Q539.675 30.58125 539.5031 30.096874Q539.33124 29.596874 538.925 29.33125Q538.53436 29.05 537.97186 29.05Q537.26874 29.05 536.6906 29.440624Q536.1281 29.83125 535.90936 30.471874Q535.70624 31.1125 535.70624 32.846874L535.70624 37.55L532.97186 37.55L532.97186 27.175L535.51874 27.175L535.51874 28.70625Q536.8781 26.940624 538.9406 26.940624Q539.84686 26.940624 540.59686 27.26875Q541.34686 27.596874 541.72186 28.1125Q542.1125 28.6125 542.26874 29.26875Q542.425 29.909374 542.425 31.096874L542.425 37.55ZM550.9875 34.253124L553.72186 34.70625Q553.20624 36.20625 552.0656 37.003124Q550.925 37.784374 549.22186 37.784374Q546.5031 37.784374 545.20624 36.01875Q544.1906 34.596874 544.1906 32.440624Q544.1906 29.8625 545.53436 28.409374Q546.8781 26.940624 548.9406 26.940624Q551.2531 26.940624 552.58124 28.471874Q553.925 30.003124 553.8781 33.159374L547.0031 33.159374Q547.03436 34.378124 547.65936 35.065624Q548.3 35.7375 549.2375 35.7375Q549.89374 35.7375 550.33124 35.39375Q550.76874 35.034374 550.9875 34.253124ZM551.14374 31.471874Q551.1125 30.284374 550.51874 29.675Q549.9406 29.05 549.1125 29.05Q548.20624 29.05 547.6281 29.690624Q547.03436 30.346874 547.05 31.471874L551.14374 31.471874ZM561.8781 33.8625L559.39374 33.8625Q559.3781 33.315624 559.3781 33.20625Q559.3781 31.9875 559.78436 31.20625Q560.1906 30.425 561.3781 29.45625Q562.58124 28.471874 562.8156 28.175Q563.1906 27.690624 563.1906 27.1125Q563.1906 26.315624 562.55 25.753124Q561.90936 25.175 560.8156 25.175Q559.76874 25.175 559.0656 25.76875Q558.3625 26.3625 558.1125 27.58125L555.58124 27.26875Q555.6906 25.534374 557.0656 24.315624Q558.45624 23.08125 560.70624 23.08125Q563.0656 23.08125 564.45624 24.315624Q565.8625 25.55 565.8625 27.190624Q565.8625 28.1125 565.34686 28.925Q564.83124 29.721874 563.15936 31.128124Q562.28436 31.846874 562.0656 32.284374Q561.8625 32.721874 561.8781 33.8625ZM559.39374 37.55L559.39374 34.8L562.14374 34.8L562.14374 37.55L559.39374 37.55Z" fill-rule="nonzero"/></svg>